<?xml version="1.0" encoding="utf-8"?>
<!-- Generator: Adobe Illustrator 25.3.1, SVG Export Plug-In . SVG Version: 6.00 Build 0)  -->
<svg version="1.1" xmlns="http://www.w3.org/2000/svg" xmlns:xlink="http://www.w3.org/1999/xlink" x="0px" y="0px"
	 viewBox="0 0 384 384" style="enable-background:new 0 0 384 384;" xml:space="preserve">
<style type="text/css">
	.st0{fill:#1769E0;}
	.st1{fill:#4285F4;}
	.st2{fill-rule:evenodd;clip-rule:evenodd;fill:#D7EFFE;}
	.st3{fill:#3DDC84;}
</style>
<g id="Layer_1">
	<g>
		<g>
			<path class="st0" d="M343.3,300.39l-301.4,0.3L8.4,353.95c-3.81,6.02,0.6,13.84,7.62,13.84l351.95-0.6
				c7.02,0,11.33-7.72,7.72-13.74L343.3,300.39L343.3,300.39z"/>
			<path class="st1" d="M343.4,300.39L42,300.69V167.3c0-18.76,15.25-33.9,34-33.9l233.49,0.2c18.76,0,33.9,15.25,33.9,33.9V300.39
				L343.4,300.39z"/>
			<path class="st2" d="M76.51,154.46c-7.3,0-13.24,5.91-13.24,13.34v111.83h258.87V167.8c0-7.4-6.01-13.34-13.34-13.34H76.51z
				 M55.24,167.8c0-11.83,9.5-21.36,21.26-21.36H308.8c11.73,0,21.36,9.5,21.36,21.36v119.86H55.24V167.8z"/>
			<g>
				<path class="st3" d="M174.35,258.71c-2.36,0-4.72-0.9-6.52-2.7L130,218.18l37.83-37.83c3.6-3.6,9.44-3.6,13.04,0
					c3.6,3.6,3.6,9.44,0,13.03l-24.8,24.8l24.8,24.8c3.6,3.6,3.6,9.44,0,13.03C179.07,257.81,176.71,258.71,174.35,258.71z"/>
			</g>
			<g>
				<path class="st0" d="M209.56,258.71c-2.36,0-4.72-0.9-6.52-2.7c-3.6-3.6-3.6-9.44,0-13.03l24.8-24.8l-24.8-24.8
					c-3.6-3.6-3.6-9.44,0-13.03c3.6-3.6,9.44-3.6,13.04,0l37.83,37.83l-37.83,37.83C214.28,257.81,211.92,258.71,209.56,258.71z"/>
			</g>
		</g>
		<g>
			<path class="st3" d="M166.7,77.24l-0.83,0.48c-1.21,0.7-2.76,0.28-3.46-0.93l-32.5-56.3c-0.7-1.21-0.28-2.76,0.93-3.46l0.83-0.48
				c1.21-0.7,2.76-0.28,3.46,0.93l32.5,56.3C168.33,74.99,167.91,76.54,166.7,77.24z"/>
			<path class="st3" d="M217.28,77.24l0.83,0.48c1.21,0.7,2.76,0.28,3.46-0.93l32.5-56.3c0.7-1.21,0.28-2.76-0.93-3.46l-0.83-0.48
				c-1.21-0.7-2.76-0.28-3.46,0.93l-32.5,56.3C215.66,74.99,216.07,76.54,217.28,77.24z"/>
			<path class="st3" d="M192,36.49c-49.62,0-90.32,38.18-94.33,86.77h188.65C282.32,74.67,241.62,36.49,192,36.49z M148.48,96.1
				c-4.4,0-7.97-3.57-7.97-7.97c0-4.4,3.57-7.97,7.97-7.97c4.4,0,7.97,3.57,7.97,7.97C156.45,92.53,152.88,96.1,148.48,96.1z
				 M235.65,96.1c-4.4,0-7.97-3.57-7.97-7.97c0-4.4,3.57-7.97,7.97-7.97c4.4,0,7.97,3.57,7.97,7.97
				C243.62,92.53,240.05,96.1,235.65,96.1z"/>
		</g>
	</g>
</g>
<g id="Layer_2">
	<g>
		<g>
			<path class="st0" d="M-263.88,246.2l-150.7,0.15l-16.75,26.63c-1.91,3.01,0.3,6.92,3.81,6.92l175.97-0.3
				c3.51,0,5.67-3.86,3.86-6.87L-263.88,246.2L-263.88,246.2z"/>
			<path class="st1" d="M-263.83,246.2l-150.7,0.15v-66.7c0-9.38,7.62-16.95,17-16.95l116.75,0.1c9.38,0,16.95,7.62,16.95,16.95
				V246.2L-263.83,246.2z"/>
			<path class="st2" d="M-397.28,173.23c-3.65,0-6.62,2.96-6.62,6.67v55.92h129.43V179.9c0-3.7-3.01-6.67-6.67-6.67H-397.28z
				 M-407.91,179.9c0-5.91,4.75-10.68,10.63-10.68h116.15c5.86,0,10.68,4.75,10.68,10.68v59.93h-137.46V179.9z"/>
			<g>
				<path class="st3" d="M-348.35,225.36c-1.18,0-2.36-0.45-3.26-1.35l-18.91-18.92l18.91-18.92c1.8-1.8,4.72-1.8,6.52,0
					c1.8,1.8,1.8,4.72,0,6.52l-12.4,12.4l12.4,12.4c1.8,1.8,1.8,4.72,0,6.52C-346,224.91-347.18,225.36-348.35,225.36z"/>
			</g>
			<g>
				<path class="st0" d="M-330.75,225.36c-1.18,0-2.36-0.45-3.26-1.35c-1.8-1.8-1.8-4.72,0-6.52l12.4-12.4l-12.4-12.4
					c-1.8-1.8-1.8-4.72,0-6.52c1.8-1.8,4.72-1.8,6.52,0l18.91,18.92l-18.91,18.92C-328.39,224.91-329.57,225.36-330.75,225.36z"/>
			</g>
		</g>
		<g>
			<path class="st3" d="M-352.18,134.62l-0.42,0.24c-0.61,0.35-1.38,0.14-1.73-0.46l-16.25-28.15c-0.35-0.61-0.14-1.38,0.46-1.73
				l0.42-0.24c0.61-0.35,1.38-0.14,1.73,0.46l16.25,28.15C-351.37,133.49-351.57,134.27-352.18,134.62z"/>
			<path class="st3" d="M-326.89,134.62l0.42,0.24c0.61,0.35,1.38,0.14,1.73-0.46l16.25-28.15c0.35-0.61,0.14-1.38-0.46-1.73
				l-0.42-0.24c-0.61-0.35-1.38-0.14-1.73,0.46l-16.25,28.15C-327.7,133.49-327.49,134.27-326.89,134.62z"/>
			<path class="st3" d="M-339.53,114.24c-24.81,0-45.16,19.09-47.16,43.38h94.33C-294.37,133.34-314.72,114.24-339.53,114.24z
				 M-361.29,144.05c-2.2,0-3.98-1.78-3.98-3.98c0-2.2,1.78-3.98,3.98-3.98s3.98,1.78,3.98,3.98
				C-357.31,142.27-359.09,144.05-361.29,144.05z M-317.7,144.05c-2.2,0-3.98-1.78-3.98-3.98c0-2.2,1.78-3.98,3.98-3.98
				s3.98,1.78,3.98,3.98C-313.72,142.27-315.5,144.05-317.7,144.05z"/>
		</g>
	</g>
</g>
</svg>
